<mxfile host="app.diagrams.net" agent="Mozilla/5.0 (Windows NT 10.0; Win64; x64) AppleWebKit/537.36 (KHTML, like Gecko) Chrome/132.0.0.0 Safari/537.36" version="26.0.10">
  <diagram name="Página-1" id="TvYG14Qko4ZeJ21JqZOj">
    <mxGraphModel dx="4330" dy="2825" grid="0" gridSize="10" guides="1" tooltips="1" connect="1" arrows="1" fold="1" page="1" pageScale="1" pageWidth="3937" pageHeight="1417" background="#FFFFFF" math="0" shadow="0">
      <root>
        <mxCell id="0" />
        <mxCell id="1" parent="0" />
        <mxCell id="zRnEoflxh51FS6Fjrhx--67" value="&lt;font face=&quot;Times New Roman&quot; style=&quot;font-size: 49px;&quot;&gt;Base de datos de Sistema integral de asistencias (SIA)&lt;/font&gt;" style="text;html=1;align=center;verticalAlign=middle;resizable=0;points=[];autosize=1;strokeColor=none;fillColor=none;fontSize=16;strokeWidth=15;fontStyle=1" parent="1" vertex="1">
          <mxGeometry x="1638" y="26" width="1079" height="71" as="geometry" />
        </mxCell>
        <mxCell id="PY6bWM1avwo25toCsDUN-4" value="" style="group" vertex="1" connectable="0" parent="1">
          <mxGeometry x="224" y="123" width="3523" height="1227" as="geometry" />
        </mxCell>
        <mxCell id="zRnEoflxh51FS6Fjrhx--129" style="edgeStyle=none;curved=1;rounded=0;orthogonalLoop=1;jettySize=auto;html=1;fontSize=12;startSize=8;endSize=8;entryX=1;entryY=0.5;entryDx=0;entryDy=0;" parent="PY6bWM1avwo25toCsDUN-4" source="zRnEoflxh51FS6Fjrhx--1" target="zRnEoflxh51FS6Fjrhx--131" edge="1">
          <mxGeometry relative="1" as="geometry">
            <mxPoint x="1283.5250279010133" y="734.0568658423662" as="targetPoint" />
          </mxGeometry>
        </mxCell>
        <mxCell id="zRnEoflxh51FS6Fjrhx--230" style="edgeStyle=none;curved=1;rounded=0;orthogonalLoop=1;jettySize=auto;html=1;exitX=1;exitY=1;exitDx=0;exitDy=-15;exitPerimeter=0;fontSize=12;startSize=8;endSize=8;entryX=0;entryY=0;entryDx=0;entryDy=0;" parent="PY6bWM1avwo25toCsDUN-4" source="zRnEoflxh51FS6Fjrhx--1" target="zRnEoflxh51FS6Fjrhx--231" edge="1">
          <mxGeometry relative="1" as="geometry">
            <mxPoint x="2224.776715028423" y="726.2596001960892" as="targetPoint" />
          </mxGeometry>
        </mxCell>
        <mxCell id="zRnEoflxh51FS6Fjrhx--268" style="edgeStyle=none;curved=1;rounded=0;orthogonalLoop=1;jettySize=auto;html=1;entryX=0;entryY=0;entryDx=0;entryDy=0;fontSize=12;startSize=8;endSize=8;" parent="PY6bWM1avwo25toCsDUN-4" source="zRnEoflxh51FS6Fjrhx--1" target="zRnEoflxh51FS6Fjrhx--248" edge="1">
          <mxGeometry relative="1" as="geometry" />
        </mxCell>
        <mxCell id="zRnEoflxh51FS6Fjrhx--1" value="&lt;font style=&quot;vertical-align: inherit;&quot;&gt;&lt;font style=&quot;vertical-align: inherit; font-size: 25px;&quot;&gt;&lt;b&gt;SQL&lt;/b&gt;&lt;/font&gt;&lt;/font&gt;" style="shape=cylinder3;whiteSpace=wrap;html=1;boundedLbl=1;backgroundOutline=1;size=15;fillColor=#66FF66;" parent="PY6bWM1avwo25toCsDUN-4" vertex="1">
          <mxGeometry x="1951.824557196309" y="330.8268424206112" width="162.4715225191156" height="225.0068086497086" as="geometry" />
        </mxCell>
        <mxCell id="zRnEoflxh51FS6Fjrhx--2" value="Tabla 1 centros" style="shape=table;startSize=30;container=1;collapsible=0;childLayout=tableLayout;strokeColor=#000000;fontSize=16;fillColor=#00FF00;" parent="PY6bWM1avwo25toCsDUN-4" vertex="1">
          <mxGeometry x="1512.5557174787932" y="13.366741107903483" width="1041.0118164384176" height="157.05920801786598" as="geometry" />
        </mxCell>
        <mxCell id="zRnEoflxh51FS6Fjrhx--3" value="" style="shape=tableRow;horizontal=0;startSize=0;swimlaneHead=0;swimlaneBody=0;strokeColor=inherit;top=0;left=0;bottom=0;right=0;collapsible=0;dropTarget=0;fillColor=none;points=[[0,0.5],[1,0.5]];portConstraint=eastwest;fontSize=16;" parent="zRnEoflxh51FS6Fjrhx--2" vertex="1">
          <mxGeometry y="30" width="1041.0118164384176" height="82" as="geometry" />
        </mxCell>
        <mxCell id="zRnEoflxh51FS6Fjrhx--25" value="id_centro" style="shape=partialRectangle;html=1;whiteSpace=wrap;connectable=0;strokeColor=inherit;overflow=hidden;fillColor=none;top=0;left=0;bottom=0;right=0;pointerEvents=1;fontSize=16;" parent="zRnEoflxh51FS6Fjrhx--3" vertex="1">
          <mxGeometry width="113" height="82" as="geometry">
            <mxRectangle width="113" height="82" as="alternateBounds" />
          </mxGeometry>
        </mxCell>
        <mxCell id="zRnEoflxh51FS6Fjrhx--4" value="nombre_centros_etnoeducativos" style="shape=partialRectangle;html=1;whiteSpace=wrap;connectable=0;strokeColor=inherit;overflow=hidden;fillColor=none;top=0;left=0;bottom=0;right=0;pointerEvents=1;fontSize=16;" parent="zRnEoflxh51FS6Fjrhx--3" vertex="1">
          <mxGeometry x="113" width="298" height="82" as="geometry">
            <mxRectangle width="298" height="82" as="alternateBounds" />
          </mxGeometry>
        </mxCell>
        <mxCell id="zRnEoflxh51FS6Fjrhx--5" value="codigo_dane" style="shape=partialRectangle;html=1;whiteSpace=wrap;connectable=0;strokeColor=inherit;overflow=hidden;fillColor=none;top=0;left=0;bottom=0;right=0;pointerEvents=1;fontSize=16;" parent="zRnEoflxh51FS6Fjrhx--3" vertex="1">
          <mxGeometry x="411" width="113" height="82" as="geometry">
            <mxRectangle width="113" height="82" as="alternateBounds" />
          </mxGeometry>
        </mxCell>
        <mxCell id="zRnEoflxh51FS6Fjrhx--6" value="Comunidad" style="shape=partialRectangle;html=1;whiteSpace=wrap;connectable=0;strokeColor=inherit;overflow=hidden;fillColor=none;top=0;left=0;bottom=0;right=0;pointerEvents=1;fontSize=16;" parent="zRnEoflxh51FS6Fjrhx--3" vertex="1">
          <mxGeometry x="524" width="112" height="82" as="geometry">
            <mxRectangle width="112" height="82" as="alternateBounds" />
          </mxGeometry>
        </mxCell>
        <mxCell id="zRnEoflxh51FS6Fjrhx--15" value="nit" style="shape=partialRectangle;html=1;whiteSpace=wrap;connectable=0;strokeColor=inherit;overflow=hidden;fillColor=none;top=0;left=0;bottom=0;right=0;pointerEvents=1;fontSize=16;" parent="zRnEoflxh51FS6Fjrhx--3" vertex="1">
          <mxGeometry x="636" width="71" height="82" as="geometry">
            <mxRectangle width="71" height="82" as="alternateBounds" />
          </mxGeometry>
        </mxCell>
        <mxCell id="zRnEoflxh51FS6Fjrhx--18" value="celular" style="shape=partialRectangle;html=1;whiteSpace=wrap;connectable=0;strokeColor=inherit;overflow=hidden;fillColor=none;top=0;left=0;bottom=0;right=0;pointerEvents=1;fontSize=16;" parent="zRnEoflxh51FS6Fjrhx--3" vertex="1">
          <mxGeometry x="707" width="112" height="82" as="geometry">
            <mxRectangle width="112" height="82" as="alternateBounds" />
          </mxGeometry>
        </mxCell>
        <mxCell id="zRnEoflxh51FS6Fjrhx--61" value="sede (tipo enfoque: principal, extensión)" style="shape=partialRectangle;html=1;whiteSpace=wrap;connectable=0;strokeColor=inherit;overflow=hidden;fillColor=none;top=0;left=0;bottom=0;right=0;pointerEvents=1;fontSize=16;" parent="zRnEoflxh51FS6Fjrhx--3" vertex="1">
          <mxGeometry x="819" width="222" height="82" as="geometry">
            <mxRectangle width="222" height="82" as="alternateBounds" />
          </mxGeometry>
        </mxCell>
        <mxCell id="zRnEoflxh51FS6Fjrhx--7" value="" style="shape=tableRow;horizontal=0;startSize=0;swimlaneHead=0;swimlaneBody=0;strokeColor=inherit;top=0;left=0;bottom=0;right=0;collapsible=0;dropTarget=0;fillColor=none;points=[[0,0.5],[1,0.5]];portConstraint=eastwest;fontSize=16;" parent="zRnEoflxh51FS6Fjrhx--2" vertex="1">
          <mxGeometry y="112" width="1041.0118164384176" height="45" as="geometry" />
        </mxCell>
        <mxCell id="zRnEoflxh51FS6Fjrhx--26" style="shape=partialRectangle;html=1;whiteSpace=wrap;connectable=0;strokeColor=inherit;overflow=hidden;fillColor=none;top=0;left=0;bottom=0;right=0;pointerEvents=1;fontSize=16;" parent="zRnEoflxh51FS6Fjrhx--7" vertex="1">
          <mxGeometry width="113" height="45" as="geometry">
            <mxRectangle width="113" height="45" as="alternateBounds" />
          </mxGeometry>
        </mxCell>
        <mxCell id="zRnEoflxh51FS6Fjrhx--8" value="" style="shape=partialRectangle;html=1;whiteSpace=wrap;connectable=0;strokeColor=inherit;overflow=hidden;fillColor=none;top=0;left=0;bottom=0;right=0;pointerEvents=1;fontSize=16;" parent="zRnEoflxh51FS6Fjrhx--7" vertex="1">
          <mxGeometry x="113" width="298" height="45" as="geometry">
            <mxRectangle width="298" height="45" as="alternateBounds" />
          </mxGeometry>
        </mxCell>
        <mxCell id="zRnEoflxh51FS6Fjrhx--9" value="" style="shape=partialRectangle;html=1;whiteSpace=wrap;connectable=0;strokeColor=inherit;overflow=hidden;fillColor=none;top=0;left=0;bottom=0;right=0;pointerEvents=1;fontSize=16;" parent="zRnEoflxh51FS6Fjrhx--7" vertex="1">
          <mxGeometry x="411" width="113" height="45" as="geometry">
            <mxRectangle width="113" height="45" as="alternateBounds" />
          </mxGeometry>
        </mxCell>
        <mxCell id="zRnEoflxh51FS6Fjrhx--10" value="" style="shape=partialRectangle;html=1;whiteSpace=wrap;connectable=0;strokeColor=inherit;overflow=hidden;fillColor=none;top=0;left=0;bottom=0;right=0;pointerEvents=1;fontSize=16;" parent="zRnEoflxh51FS6Fjrhx--7" vertex="1">
          <mxGeometry x="524" width="112" height="45" as="geometry">
            <mxRectangle width="112" height="45" as="alternateBounds" />
          </mxGeometry>
        </mxCell>
        <mxCell id="zRnEoflxh51FS6Fjrhx--16" style="shape=partialRectangle;html=1;whiteSpace=wrap;connectable=0;strokeColor=inherit;overflow=hidden;fillColor=none;top=0;left=0;bottom=0;right=0;pointerEvents=1;fontSize=16;" parent="zRnEoflxh51FS6Fjrhx--7" vertex="1">
          <mxGeometry x="636" width="71" height="45" as="geometry">
            <mxRectangle width="71" height="45" as="alternateBounds" />
          </mxGeometry>
        </mxCell>
        <mxCell id="zRnEoflxh51FS6Fjrhx--19" style="shape=partialRectangle;html=1;whiteSpace=wrap;connectable=0;strokeColor=inherit;overflow=hidden;fillColor=none;top=0;left=0;bottom=0;right=0;pointerEvents=1;fontSize=16;" parent="zRnEoflxh51FS6Fjrhx--7" vertex="1">
          <mxGeometry x="707" width="112" height="45" as="geometry">
            <mxRectangle width="112" height="45" as="alternateBounds" />
          </mxGeometry>
        </mxCell>
        <mxCell id="zRnEoflxh51FS6Fjrhx--62" style="shape=partialRectangle;html=1;whiteSpace=wrap;connectable=0;strokeColor=inherit;overflow=hidden;fillColor=none;top=0;left=0;bottom=0;right=0;pointerEvents=1;fontSize=16;" parent="zRnEoflxh51FS6Fjrhx--7" vertex="1">
          <mxGeometry x="819" width="222" height="45" as="geometry">
            <mxRectangle width="222" height="45" as="alternateBounds" />
          </mxGeometry>
        </mxCell>
        <mxCell id="zRnEoflxh51FS6Fjrhx--27" style="edgeStyle=none;curved=1;rounded=0;orthogonalLoop=1;jettySize=auto;html=1;entryX=0.497;entryY=0.974;entryDx=0;entryDy=0;entryPerimeter=0;fontSize=12;startSize=8;endSize=8;" parent="PY6bWM1avwo25toCsDUN-4" source="zRnEoflxh51FS6Fjrhx--1" target="zRnEoflxh51FS6Fjrhx--7" edge="1">
          <mxGeometry relative="1" as="geometry" />
        </mxCell>
        <mxCell id="zRnEoflxh51FS6Fjrhx--29" value="Tabla 2 grados" style="shape=table;startSize=30;container=1;collapsible=0;childLayout=tableLayout;strokeColor=#000000;fontSize=16;fillColor=#00FF00;" parent="PY6bWM1avwo25toCsDUN-4" vertex="1">
          <mxGeometry x="1049.5660354734869" y="204.95669698785338" width="801.0421138298901" height="171.52233369686647" as="geometry" />
        </mxCell>
        <mxCell id="zRnEoflxh51FS6Fjrhx--30" value="" style="shape=tableRow;horizontal=0;startSize=0;swimlaneHead=0;swimlaneBody=0;strokeColor=inherit;top=0;left=0;bottom=0;right=0;collapsible=0;dropTarget=0;fillColor=none;points=[[0,0.5],[1,0.5]];portConstraint=eastwest;fontSize=16;" parent="zRnEoflxh51FS6Fjrhx--29" vertex="1">
          <mxGeometry y="30" width="801.0421138298901" height="92" as="geometry" />
        </mxCell>
        <mxCell id="zRnEoflxh51FS6Fjrhx--31" value="id_grado" style="shape=partialRectangle;html=1;whiteSpace=wrap;connectable=0;strokeColor=inherit;overflow=hidden;fillColor=none;top=0;left=0;bottom=0;right=0;pointerEvents=1;fontSize=16;" parent="zRnEoflxh51FS6Fjrhx--30" vertex="1">
          <mxGeometry width="108" height="92" as="geometry">
            <mxRectangle width="108" height="92" as="alternateBounds" />
          </mxGeometry>
        </mxCell>
        <mxCell id="zRnEoflxh51FS6Fjrhx--32" value="id_centro (clave foranea)" style="shape=partialRectangle;html=1;whiteSpace=wrap;connectable=0;strokeColor=inherit;overflow=hidden;fillColor=none;top=0;left=0;bottom=0;right=0;pointerEvents=1;fontSize=16;" parent="zRnEoflxh51FS6Fjrhx--30" vertex="1">
          <mxGeometry x="108" width="209" height="92" as="geometry">
            <mxRectangle width="209" height="92" as="alternateBounds" />
          </mxGeometry>
        </mxCell>
        <mxCell id="zRnEoflxh51FS6Fjrhx--33" value="nombre_grado" style="shape=partialRectangle;html=1;whiteSpace=wrap;connectable=0;strokeColor=inherit;overflow=hidden;fillColor=none;top=0;left=0;bottom=0;right=0;pointerEvents=1;fontSize=16;" parent="zRnEoflxh51FS6Fjrhx--30" vertex="1">
          <mxGeometry x="317" width="170" height="92" as="geometry">
            <mxRectangle width="170" height="92" as="alternateBounds" />
          </mxGeometry>
        </mxCell>
        <mxCell id="zRnEoflxh51FS6Fjrhx--34" value="nivel (tipo enfoque primaria, secundaria)" style="shape=partialRectangle;html=1;whiteSpace=wrap;connectable=0;strokeColor=inherit;overflow=hidden;fillColor=none;top=0;left=0;bottom=0;right=0;pointerEvents=1;fontSize=16;" parent="zRnEoflxh51FS6Fjrhx--30" vertex="1">
          <mxGeometry x="487" width="160" height="92" as="geometry">
            <mxRectangle width="160" height="92" as="alternateBounds" />
          </mxGeometry>
        </mxCell>
        <mxCell id="zRnEoflxh51FS6Fjrhx--35" value="horario (tipo enfoque mañana , tarde)" style="shape=partialRectangle;html=1;whiteSpace=wrap;connectable=0;strokeColor=inherit;overflow=hidden;fillColor=none;top=0;left=0;bottom=0;right=0;pointerEvents=1;fontSize=16;" parent="zRnEoflxh51FS6Fjrhx--30" vertex="1">
          <mxGeometry x="647" width="154" height="92" as="geometry">
            <mxRectangle width="154" height="92" as="alternateBounds" />
          </mxGeometry>
        </mxCell>
        <mxCell id="zRnEoflxh51FS6Fjrhx--37" value="" style="shape=tableRow;horizontal=0;startSize=0;swimlaneHead=0;swimlaneBody=0;strokeColor=inherit;top=0;left=0;bottom=0;right=0;collapsible=0;dropTarget=0;fillColor=none;points=[[0,0.5],[1,0.5]];portConstraint=eastwest;fontSize=16;" parent="zRnEoflxh51FS6Fjrhx--29" vertex="1">
          <mxGeometry y="122" width="801.0421138298901" height="50" as="geometry" />
        </mxCell>
        <mxCell id="zRnEoflxh51FS6Fjrhx--38" style="shape=partialRectangle;html=1;whiteSpace=wrap;connectable=0;strokeColor=inherit;overflow=hidden;fillColor=none;top=0;left=0;bottom=0;right=0;pointerEvents=1;fontSize=16;" parent="zRnEoflxh51FS6Fjrhx--37" vertex="1">
          <mxGeometry width="108" height="50" as="geometry">
            <mxRectangle width="108" height="50" as="alternateBounds" />
          </mxGeometry>
        </mxCell>
        <mxCell id="zRnEoflxh51FS6Fjrhx--39" value="" style="shape=partialRectangle;html=1;whiteSpace=wrap;connectable=0;strokeColor=inherit;overflow=hidden;fillColor=none;top=0;left=0;bottom=0;right=0;pointerEvents=1;fontSize=16;" parent="zRnEoflxh51FS6Fjrhx--37" vertex="1">
          <mxGeometry x="108" width="209" height="50" as="geometry">
            <mxRectangle width="209" height="50" as="alternateBounds" />
          </mxGeometry>
        </mxCell>
        <mxCell id="zRnEoflxh51FS6Fjrhx--40" value="" style="shape=partialRectangle;html=1;whiteSpace=wrap;connectable=0;strokeColor=inherit;overflow=hidden;fillColor=none;top=0;left=0;bottom=0;right=0;pointerEvents=1;fontSize=16;" parent="zRnEoflxh51FS6Fjrhx--37" vertex="1">
          <mxGeometry x="317" width="170" height="50" as="geometry">
            <mxRectangle width="170" height="50" as="alternateBounds" />
          </mxGeometry>
        </mxCell>
        <mxCell id="zRnEoflxh51FS6Fjrhx--41" value="" style="shape=partialRectangle;html=1;whiteSpace=wrap;connectable=0;strokeColor=inherit;overflow=hidden;fillColor=none;top=0;left=0;bottom=0;right=0;pointerEvents=1;fontSize=16;" parent="zRnEoflxh51FS6Fjrhx--37" vertex="1">
          <mxGeometry x="487" width="160" height="50" as="geometry">
            <mxRectangle width="160" height="50" as="alternateBounds" />
          </mxGeometry>
        </mxCell>
        <mxCell id="zRnEoflxh51FS6Fjrhx--42" style="shape=partialRectangle;html=1;whiteSpace=wrap;connectable=0;strokeColor=inherit;overflow=hidden;fillColor=none;top=0;left=0;bottom=0;right=0;pointerEvents=1;fontSize=16;" parent="zRnEoflxh51FS6Fjrhx--37" vertex="1">
          <mxGeometry x="647" width="154" height="50" as="geometry">
            <mxRectangle width="154" height="50" as="alternateBounds" />
          </mxGeometry>
        </mxCell>
        <mxCell id="zRnEoflxh51FS6Fjrhx--59" style="edgeStyle=none;curved=1;rounded=0;orthogonalLoop=1;jettySize=auto;html=1;entryX=1.009;entryY=-0.103;entryDx=0;entryDy=0;entryPerimeter=0;fontSize=12;startSize=8;endSize=8;" parent="PY6bWM1avwo25toCsDUN-4" source="zRnEoflxh51FS6Fjrhx--1" target="zRnEoflxh51FS6Fjrhx--37" edge="1">
          <mxGeometry relative="1" as="geometry" />
        </mxCell>
        <mxCell id="zRnEoflxh51FS6Fjrhx--60" style="edgeStyle=none;curved=1;rounded=0;orthogonalLoop=1;jettySize=auto;html=1;entryX=1;entryY=0.5;entryDx=0;entryDy=0;fontSize=12;startSize=8;endSize=8;" parent="PY6bWM1avwo25toCsDUN-4" source="zRnEoflxh51FS6Fjrhx--1" target="zRnEoflxh51FS6Fjrhx--69" edge="1">
          <mxGeometry relative="1" as="geometry">
            <mxPoint x="1475.4147274309234" y="583.4047823955556" as="targetPoint" />
          </mxGeometry>
        </mxCell>
        <mxCell id="zRnEoflxh51FS6Fjrhx--68" value="Tabla 3 asignaturas" style="shape=table;startSize=30;container=1;collapsible=0;childLayout=tableLayout;strokeColor=#000000;fontSize=16;fillColor=#00FF00;" parent="PY6bWM1avwo25toCsDUN-4" vertex="1">
          <mxGeometry x="748.4521470713926" y="464.494253499646" width="528.1082682309684" height="125.35775369028816" as="geometry" />
        </mxCell>
        <mxCell id="zRnEoflxh51FS6Fjrhx--69" value="" style="shape=tableRow;horizontal=0;startSize=0;swimlaneHead=0;swimlaneBody=0;strokeColor=inherit;top=0;left=0;bottom=0;right=0;collapsible=0;dropTarget=0;fillColor=none;points=[[0,0.5],[1,0.5]];portConstraint=eastwest;fontSize=16;" parent="zRnEoflxh51FS6Fjrhx--68" vertex="1">
          <mxGeometry y="30" width="528.1082682309684" height="46" as="geometry" />
        </mxCell>
        <mxCell id="zRnEoflxh51FS6Fjrhx--70" value="id_asignatura" style="shape=partialRectangle;html=1;whiteSpace=wrap;connectable=0;strokeColor=inherit;overflow=hidden;fillColor=none;top=0;left=0;bottom=0;right=0;pointerEvents=1;fontSize=16;" parent="zRnEoflxh51FS6Fjrhx--69" vertex="1">
          <mxGeometry width="121" height="46" as="geometry">
            <mxRectangle width="121" height="46" as="alternateBounds" />
          </mxGeometry>
        </mxCell>
        <mxCell id="zRnEoflxh51FS6Fjrhx--71" value="id_grado (clave foranea)" style="shape=partialRectangle;html=1;whiteSpace=wrap;connectable=0;strokeColor=inherit;overflow=hidden;fillColor=none;top=0;left=0;bottom=0;right=0;pointerEvents=1;fontSize=16;" parent="zRnEoflxh51FS6Fjrhx--69" vertex="1">
          <mxGeometry x="121" width="220" height="46" as="geometry">
            <mxRectangle width="220" height="46" as="alternateBounds" />
          </mxGeometry>
        </mxCell>
        <mxCell id="zRnEoflxh51FS6Fjrhx--72" value="nombre_asignatura" style="shape=partialRectangle;html=1;whiteSpace=wrap;connectable=0;strokeColor=inherit;overflow=hidden;fillColor=none;top=0;left=0;bottom=0;right=0;pointerEvents=1;fontSize=16;" parent="zRnEoflxh51FS6Fjrhx--69" vertex="1">
          <mxGeometry x="341" width="187" height="46" as="geometry">
            <mxRectangle width="187" height="46" as="alternateBounds" />
          </mxGeometry>
        </mxCell>
        <mxCell id="zRnEoflxh51FS6Fjrhx--75" value="" style="shape=tableRow;horizontal=0;startSize=0;swimlaneHead=0;swimlaneBody=0;strokeColor=inherit;top=0;left=0;bottom=0;right=0;collapsible=0;dropTarget=0;fillColor=none;points=[[0,0.5],[1,0.5]];portConstraint=eastwest;fontSize=16;" parent="zRnEoflxh51FS6Fjrhx--68" vertex="1">
          <mxGeometry y="76" width="528.1082682309684" height="49" as="geometry" />
        </mxCell>
        <mxCell id="zRnEoflxh51FS6Fjrhx--76" style="shape=partialRectangle;html=1;whiteSpace=wrap;connectable=0;strokeColor=inherit;overflow=hidden;fillColor=none;top=0;left=0;bottom=0;right=0;pointerEvents=1;fontSize=16;" parent="zRnEoflxh51FS6Fjrhx--75" vertex="1">
          <mxGeometry width="121" height="49" as="geometry">
            <mxRectangle width="121" height="49" as="alternateBounds" />
          </mxGeometry>
        </mxCell>
        <mxCell id="zRnEoflxh51FS6Fjrhx--77" value="" style="shape=partialRectangle;html=1;whiteSpace=wrap;connectable=0;strokeColor=inherit;overflow=hidden;fillColor=none;top=0;left=0;bottom=0;right=0;pointerEvents=1;fontSize=16;" parent="zRnEoflxh51FS6Fjrhx--75" vertex="1">
          <mxGeometry x="121" width="220" height="49" as="geometry">
            <mxRectangle width="220" height="49" as="alternateBounds" />
          </mxGeometry>
        </mxCell>
        <mxCell id="zRnEoflxh51FS6Fjrhx--78" value="" style="shape=partialRectangle;html=1;whiteSpace=wrap;connectable=0;strokeColor=inherit;overflow=hidden;fillColor=none;top=0;left=0;bottom=0;right=0;pointerEvents=1;fontSize=16;" parent="zRnEoflxh51FS6Fjrhx--75" vertex="1">
          <mxGeometry x="341" width="187" height="49" as="geometry">
            <mxRectangle width="187" height="49" as="alternateBounds" />
          </mxGeometry>
        </mxCell>
        <mxCell id="zRnEoflxh51FS6Fjrhx--89" style="edgeStyle=none;curved=1;rounded=0;orthogonalLoop=1;jettySize=auto;html=1;fontSize=12;startSize=8;endSize=8;exitX=0;exitY=0.5;exitDx=0;exitDy=0;entryX=0.25;entryY=0;entryDx=0;entryDy=0;" parent="PY6bWM1avwo25toCsDUN-4" source="zRnEoflxh51FS6Fjrhx--3" target="zRnEoflxh51FS6Fjrhx--29" edge="1">
          <mxGeometry relative="1" as="geometry">
            <mxPoint x="1486.0728593081774" y="79.0865515550956" as="sourcePoint" />
            <mxPoint x="1249.9475799137294" y="202.72890680320282" as="targetPoint" />
            <Array as="points">
              <mxPoint x="1316.0193324048364" y="83.54213192439676" />
            </Array>
          </mxGeometry>
        </mxCell>
        <mxCell id="zRnEoflxh51FS6Fjrhx--90" value="&lt;font style=&quot;font-size: 22px;&quot;&gt;Clave foránea&lt;/font&gt;" style="edgeLabel;html=1;align=center;verticalAlign=middle;resizable=0;points=[];fontSize=12;" parent="zRnEoflxh51FS6Fjrhx--89" vertex="1" connectable="0">
          <mxGeometry x="-0.1974" y="28" relative="1" as="geometry">
            <mxPoint as="offset" />
          </mxGeometry>
        </mxCell>
        <mxCell id="zRnEoflxh51FS6Fjrhx--95" style="edgeStyle=none;curved=1;rounded=0;orthogonalLoop=1;jettySize=auto;html=1;fontSize=12;startSize=8;endSize=8;exitX=0;exitY=0.5;exitDx=0;exitDy=0;entryX=0.308;entryY=0.012;entryDx=0;entryDy=0;entryPerimeter=0;" parent="PY6bWM1avwo25toCsDUN-4" source="zRnEoflxh51FS6Fjrhx--30" target="zRnEoflxh51FS6Fjrhx--68" edge="1">
          <mxGeometry relative="1" as="geometry">
            <mxPoint x="1049.5660354734869" y="280.7015632659731" as="sourcePoint" />
            <mxPoint x="894.6765173385966" y="473.40541423824834" as="targetPoint" />
            <Array as="points">
              <mxPoint x="910.9236695905082" y="314.1184160357318" />
            </Array>
          </mxGeometry>
        </mxCell>
        <mxCell id="zRnEoflxh51FS6Fjrhx--96" value="&lt;font style=&quot;font-size: 22px;&quot;&gt;Clave foránea&lt;/font&gt;" style="edgeLabel;html=1;align=center;verticalAlign=middle;resizable=0;points=[];fontSize=12;" parent="zRnEoflxh51FS6Fjrhx--95" vertex="1" connectable="0">
          <mxGeometry x="-0.1974" y="28" relative="1" as="geometry">
            <mxPoint as="offset" />
          </mxGeometry>
        </mxCell>
        <mxCell id="zRnEoflxh51FS6Fjrhx--130" value="Tabla 4 estudiantes" style="shape=table;startSize=30;container=1;collapsible=0;childLayout=tableLayout;strokeColor=#000000;fontSize=16;fillColor=#00FF00;" parent="PY6bWM1avwo25toCsDUN-4" vertex="1">
          <mxGeometry x="666.133242328374" y="672.7926357644752" width="1206.156088877411" height="122.75866514152911" as="geometry" />
        </mxCell>
        <mxCell id="zRnEoflxh51FS6Fjrhx--131" value="" style="shape=tableRow;horizontal=0;startSize=0;swimlaneHead=0;swimlaneBody=0;strokeColor=inherit;top=0;left=0;bottom=0;right=0;collapsible=0;dropTarget=0;fillColor=none;points=[[0,0.5],[1,0.5]];portConstraint=eastwest;fontSize=16;" parent="zRnEoflxh51FS6Fjrhx--130" vertex="1">
          <mxGeometry y="30" width="1206.156088877411" height="44" as="geometry" />
        </mxCell>
        <mxCell id="zRnEoflxh51FS6Fjrhx--132" value="id_estudiante" style="shape=partialRectangle;html=1;whiteSpace=wrap;connectable=0;strokeColor=inherit;overflow=hidden;fillColor=none;top=0;left=0;bottom=0;right=0;pointerEvents=1;fontSize=16;" parent="zRnEoflxh51FS6Fjrhx--131" vertex="1">
          <mxGeometry width="121" height="44" as="geometry">
            <mxRectangle width="121" height="44" as="alternateBounds" />
          </mxGeometry>
        </mxCell>
        <mxCell id="zRnEoflxh51FS6Fjrhx--133" value="id_grado (clave foranea)" style="shape=partialRectangle;html=1;whiteSpace=wrap;connectable=0;strokeColor=inherit;overflow=hidden;fillColor=none;top=0;left=0;bottom=0;right=0;pointerEvents=1;fontSize=16;" parent="zRnEoflxh51FS6Fjrhx--131" vertex="1">
          <mxGeometry x="121" width="220" height="44" as="geometry">
            <mxRectangle width="220" height="44" as="alternateBounds" />
          </mxGeometry>
        </mxCell>
        <mxCell id="zRnEoflxh51FS6Fjrhx--134" value="apellido_1" style="shape=partialRectangle;html=1;whiteSpace=wrap;connectable=0;strokeColor=inherit;overflow=hidden;fillColor=none;top=0;left=0;bottom=0;right=0;pointerEvents=1;fontSize=16;" parent="zRnEoflxh51FS6Fjrhx--131" vertex="1">
          <mxGeometry x="341" width="134" height="44" as="geometry">
            <mxRectangle width="134" height="44" as="alternateBounds" />
          </mxGeometry>
        </mxCell>
        <mxCell id="zRnEoflxh51FS6Fjrhx--139" value="apellido_2" style="shape=partialRectangle;html=1;whiteSpace=wrap;connectable=0;strokeColor=inherit;overflow=hidden;fillColor=none;top=0;left=0;bottom=0;right=0;pointerEvents=1;fontSize=16;" parent="zRnEoflxh51FS6Fjrhx--131" vertex="1">
          <mxGeometry x="475" width="138" height="44" as="geometry">
            <mxRectangle width="138" height="44" as="alternateBounds" />
          </mxGeometry>
        </mxCell>
        <mxCell id="zRnEoflxh51FS6Fjrhx--141" value="nombre_1" style="shape=partialRectangle;html=1;whiteSpace=wrap;connectable=0;strokeColor=inherit;overflow=hidden;fillColor=none;top=0;left=0;bottom=0;right=0;pointerEvents=1;fontSize=16;" parent="zRnEoflxh51FS6Fjrhx--131" vertex="1">
          <mxGeometry x="613" width="122" height="44" as="geometry">
            <mxRectangle width="122" height="44" as="alternateBounds" />
          </mxGeometry>
        </mxCell>
        <mxCell id="zRnEoflxh51FS6Fjrhx--143" value="nombre_2" style="shape=partialRectangle;html=1;whiteSpace=wrap;connectable=0;strokeColor=inherit;overflow=hidden;fillColor=none;top=0;left=0;bottom=0;right=0;pointerEvents=1;fontSize=16;" parent="zRnEoflxh51FS6Fjrhx--131" vertex="1">
          <mxGeometry x="735" width="124" height="44" as="geometry">
            <mxRectangle width="124" height="44" as="alternateBounds" />
          </mxGeometry>
        </mxCell>
        <mxCell id="zRnEoflxh51FS6Fjrhx--145" value="tipo_documento" style="shape=partialRectangle;html=1;whiteSpace=wrap;connectable=0;strokeColor=inherit;overflow=hidden;fillColor=none;top=0;left=0;bottom=0;right=0;pointerEvents=1;fontSize=16;" parent="zRnEoflxh51FS6Fjrhx--131" vertex="1">
          <mxGeometry x="859" width="165" height="44" as="geometry">
            <mxRectangle width="165" height="44" as="alternateBounds" />
          </mxGeometry>
        </mxCell>
        <mxCell id="zRnEoflxh51FS6Fjrhx--147" value="numero_documento" style="shape=partialRectangle;html=1;whiteSpace=wrap;connectable=0;strokeColor=inherit;overflow=hidden;fillColor=none;top=0;left=0;bottom=0;right=0;pointerEvents=1;fontSize=16;" parent="zRnEoflxh51FS6Fjrhx--131" vertex="1">
          <mxGeometry x="1024" width="182" height="44" as="geometry">
            <mxRectangle width="182" height="44" as="alternateBounds" />
          </mxGeometry>
        </mxCell>
        <mxCell id="zRnEoflxh51FS6Fjrhx--135" value="" style="shape=tableRow;horizontal=0;startSize=0;swimlaneHead=0;swimlaneBody=0;strokeColor=inherit;top=0;left=0;bottom=0;right=0;collapsible=0;dropTarget=0;fillColor=none;points=[[0,0.5],[1,0.5]];portConstraint=eastwest;fontSize=16;" parent="zRnEoflxh51FS6Fjrhx--130" vertex="1">
          <mxGeometry y="74" width="1206.156088877411" height="49" as="geometry" />
        </mxCell>
        <mxCell id="zRnEoflxh51FS6Fjrhx--136" style="shape=partialRectangle;html=1;whiteSpace=wrap;connectable=0;strokeColor=inherit;overflow=hidden;fillColor=none;top=0;left=0;bottom=0;right=0;pointerEvents=1;fontSize=16;" parent="zRnEoflxh51FS6Fjrhx--135" vertex="1">
          <mxGeometry width="121" height="49" as="geometry">
            <mxRectangle width="121" height="49" as="alternateBounds" />
          </mxGeometry>
        </mxCell>
        <mxCell id="zRnEoflxh51FS6Fjrhx--137" value="" style="shape=partialRectangle;html=1;whiteSpace=wrap;connectable=0;strokeColor=inherit;overflow=hidden;fillColor=none;top=0;left=0;bottom=0;right=0;pointerEvents=1;fontSize=16;" parent="zRnEoflxh51FS6Fjrhx--135" vertex="1">
          <mxGeometry x="121" width="220" height="49" as="geometry">
            <mxRectangle width="220" height="49" as="alternateBounds" />
          </mxGeometry>
        </mxCell>
        <mxCell id="zRnEoflxh51FS6Fjrhx--138" value="" style="shape=partialRectangle;html=1;whiteSpace=wrap;connectable=0;strokeColor=inherit;overflow=hidden;fillColor=none;top=0;left=0;bottom=0;right=0;pointerEvents=1;fontSize=16;" parent="zRnEoflxh51FS6Fjrhx--135" vertex="1">
          <mxGeometry x="341" width="134" height="49" as="geometry">
            <mxRectangle width="134" height="49" as="alternateBounds" />
          </mxGeometry>
        </mxCell>
        <mxCell id="zRnEoflxh51FS6Fjrhx--140" style="shape=partialRectangle;html=1;whiteSpace=wrap;connectable=0;strokeColor=inherit;overflow=hidden;fillColor=none;top=0;left=0;bottom=0;right=0;pointerEvents=1;fontSize=16;" parent="zRnEoflxh51FS6Fjrhx--135" vertex="1">
          <mxGeometry x="475" width="138" height="49" as="geometry">
            <mxRectangle width="138" height="49" as="alternateBounds" />
          </mxGeometry>
        </mxCell>
        <mxCell id="zRnEoflxh51FS6Fjrhx--142" style="shape=partialRectangle;html=1;whiteSpace=wrap;connectable=0;strokeColor=inherit;overflow=hidden;fillColor=none;top=0;left=0;bottom=0;right=0;pointerEvents=1;fontSize=16;" parent="zRnEoflxh51FS6Fjrhx--135" vertex="1">
          <mxGeometry x="613" width="122" height="49" as="geometry">
            <mxRectangle width="122" height="49" as="alternateBounds" />
          </mxGeometry>
        </mxCell>
        <mxCell id="zRnEoflxh51FS6Fjrhx--144" style="shape=partialRectangle;html=1;whiteSpace=wrap;connectable=0;strokeColor=inherit;overflow=hidden;fillColor=none;top=0;left=0;bottom=0;right=0;pointerEvents=1;fontSize=16;" parent="zRnEoflxh51FS6Fjrhx--135" vertex="1">
          <mxGeometry x="735" width="124" height="49" as="geometry">
            <mxRectangle width="124" height="49" as="alternateBounds" />
          </mxGeometry>
        </mxCell>
        <mxCell id="zRnEoflxh51FS6Fjrhx--146" style="shape=partialRectangle;html=1;whiteSpace=wrap;connectable=0;strokeColor=inherit;overflow=hidden;fillColor=none;top=0;left=0;bottom=0;right=0;pointerEvents=1;fontSize=16;" parent="zRnEoflxh51FS6Fjrhx--135" vertex="1">
          <mxGeometry x="859" width="165" height="49" as="geometry">
            <mxRectangle width="165" height="49" as="alternateBounds" />
          </mxGeometry>
        </mxCell>
        <mxCell id="zRnEoflxh51FS6Fjrhx--148" style="shape=partialRectangle;html=1;whiteSpace=wrap;connectable=0;strokeColor=inherit;overflow=hidden;fillColor=none;top=0;left=0;bottom=0;right=0;pointerEvents=1;fontSize=16;" parent="zRnEoflxh51FS6Fjrhx--135" vertex="1">
          <mxGeometry x="1024" width="182" height="49" as="geometry">
            <mxRectangle width="182" height="49" as="alternateBounds" />
          </mxGeometry>
        </mxCell>
        <mxCell id="zRnEoflxh51FS6Fjrhx--170" style="edgeStyle=none;curved=1;rounded=0;orthogonalLoop=1;jettySize=auto;html=1;fontSize=12;startSize=8;endSize=8;entryX=0.161;entryY=0.048;entryDx=0;entryDy=0;entryPerimeter=0;exitX=0;exitY=0.5;exitDx=0;exitDy=0;" parent="PY6bWM1avwo25toCsDUN-4" source="zRnEoflxh51FS6Fjrhx--30" target="zRnEoflxh51FS6Fjrhx--130" edge="1">
          <mxGeometry relative="1" as="geometry">
            <mxPoint x="1049.5660354734869" y="284.043248542949" as="sourcePoint" />
            <mxPoint x="430.00796293392597" y="676.1343210414511" as="targetPoint" />
            <Array as="points">
              <mxPoint x="839.4361996820973" y="259.5375565117926" />
              <mxPoint x="460.33598047082756" y="541.353014870091" />
            </Array>
          </mxGeometry>
        </mxCell>
        <mxCell id="zRnEoflxh51FS6Fjrhx--171" value="&lt;font style=&quot;font-size: 22px;&quot;&gt;Clave foránea&lt;/font&gt;" style="edgeLabel;html=1;align=center;verticalAlign=middle;resizable=0;points=[];fontSize=12;" parent="zRnEoflxh51FS6Fjrhx--170" vertex="1" connectable="0">
          <mxGeometry x="-0.1974" y="28" relative="1" as="geometry">
            <mxPoint as="offset" />
          </mxGeometry>
        </mxCell>
        <mxCell id="zRnEoflxh51FS6Fjrhx--172" value="Tabla 5 profesores" style="shape=table;startSize=30;container=1;collapsible=0;childLayout=tableLayout;strokeColor=#000000;fontSize=16;fillColor=#00FF00;" parent="PY6bWM1avwo25toCsDUN-4" vertex="1">
          <mxGeometry x="517.7425850942484" y="886.660493490931" width="1002.5251139867862" height="122.75866514152911" as="geometry" />
        </mxCell>
        <mxCell id="zRnEoflxh51FS6Fjrhx--173" value="" style="shape=tableRow;horizontal=0;startSize=0;swimlaneHead=0;swimlaneBody=0;strokeColor=inherit;top=0;left=0;bottom=0;right=0;collapsible=0;dropTarget=0;fillColor=none;points=[[0,0.5],[1,0.5]];portConstraint=eastwest;fontSize=16;" parent="zRnEoflxh51FS6Fjrhx--172" vertex="1">
          <mxGeometry y="30" width="1002.5251139867862" height="44" as="geometry" />
        </mxCell>
        <mxCell id="zRnEoflxh51FS6Fjrhx--174" value="id_profesor" style="shape=partialRectangle;html=1;whiteSpace=wrap;connectable=0;strokeColor=inherit;overflow=hidden;fillColor=none;top=0;left=0;bottom=0;right=0;pointerEvents=1;fontSize=16;" parent="zRnEoflxh51FS6Fjrhx--173" vertex="1">
          <mxGeometry width="121" height="44" as="geometry">
            <mxRectangle width="121" height="44" as="alternateBounds" />
          </mxGeometry>
        </mxCell>
        <mxCell id="zRnEoflxh51FS6Fjrhx--175" value="id_centro (clave foranea)" style="shape=partialRectangle;html=1;whiteSpace=wrap;connectable=0;strokeColor=inherit;overflow=hidden;fillColor=none;top=0;left=0;bottom=0;right=0;pointerEvents=1;fontSize=16;" parent="zRnEoflxh51FS6Fjrhx--173" vertex="1">
          <mxGeometry x="121" width="220" height="44" as="geometry">
            <mxRectangle width="220" height="44" as="alternateBounds" />
          </mxGeometry>
        </mxCell>
        <mxCell id="zRnEoflxh51FS6Fjrhx--176" value="apellidos" style="shape=partialRectangle;html=1;whiteSpace=wrap;connectable=0;strokeColor=inherit;overflow=hidden;fillColor=none;top=0;left=0;bottom=0;right=0;pointerEvents=1;fontSize=16;" parent="zRnEoflxh51FS6Fjrhx--173" vertex="1">
          <mxGeometry x="341" width="134" height="44" as="geometry">
            <mxRectangle width="134" height="44" as="alternateBounds" />
          </mxGeometry>
        </mxCell>
        <mxCell id="zRnEoflxh51FS6Fjrhx--177" value="nombres" style="shape=partialRectangle;html=1;whiteSpace=wrap;connectable=0;strokeColor=inherit;overflow=hidden;fillColor=none;top=0;left=0;bottom=0;right=0;pointerEvents=1;fontSize=16;" parent="zRnEoflxh51FS6Fjrhx--173" vertex="1">
          <mxGeometry x="475" width="138" height="44" as="geometry">
            <mxRectangle width="138" height="44" as="alternateBounds" />
          </mxGeometry>
        </mxCell>
        <mxCell id="zRnEoflxh51FS6Fjrhx--178" value="tipo_documento" style="shape=partialRectangle;html=1;whiteSpace=wrap;connectable=0;strokeColor=inherit;overflow=hidden;fillColor=none;top=0;left=0;bottom=0;right=0;pointerEvents=1;fontSize=16;" parent="zRnEoflxh51FS6Fjrhx--173" vertex="1">
          <mxGeometry x="613" width="160" height="44" as="geometry">
            <mxRectangle width="160" height="44" as="alternateBounds" />
          </mxGeometry>
        </mxCell>
        <mxCell id="zRnEoflxh51FS6Fjrhx--179" value="numero_documento" style="shape=partialRectangle;html=1;whiteSpace=wrap;connectable=0;strokeColor=inherit;overflow=hidden;fillColor=none;top=0;left=0;bottom=0;right=0;pointerEvents=1;fontSize=16;" parent="zRnEoflxh51FS6Fjrhx--173" vertex="1">
          <mxGeometry x="773" width="230" height="44" as="geometry">
            <mxRectangle width="230" height="44" as="alternateBounds" />
          </mxGeometry>
        </mxCell>
        <mxCell id="zRnEoflxh51FS6Fjrhx--182" value="" style="shape=tableRow;horizontal=0;startSize=0;swimlaneHead=0;swimlaneBody=0;strokeColor=inherit;top=0;left=0;bottom=0;right=0;collapsible=0;dropTarget=0;fillColor=none;points=[[0,0.5],[1,0.5]];portConstraint=eastwest;fontSize=16;" parent="zRnEoflxh51FS6Fjrhx--172" vertex="1">
          <mxGeometry y="74" width="1002.5251139867862" height="49" as="geometry" />
        </mxCell>
        <mxCell id="zRnEoflxh51FS6Fjrhx--183" style="shape=partialRectangle;html=1;whiteSpace=wrap;connectable=0;strokeColor=inherit;overflow=hidden;fillColor=none;top=0;left=0;bottom=0;right=0;pointerEvents=1;fontSize=16;" parent="zRnEoflxh51FS6Fjrhx--182" vertex="1">
          <mxGeometry width="121" height="49" as="geometry">
            <mxRectangle width="121" height="49" as="alternateBounds" />
          </mxGeometry>
        </mxCell>
        <mxCell id="zRnEoflxh51FS6Fjrhx--184" value="" style="shape=partialRectangle;html=1;whiteSpace=wrap;connectable=0;strokeColor=inherit;overflow=hidden;fillColor=none;top=0;left=0;bottom=0;right=0;pointerEvents=1;fontSize=16;" parent="zRnEoflxh51FS6Fjrhx--182" vertex="1">
          <mxGeometry x="121" width="220" height="49" as="geometry">
            <mxRectangle width="220" height="49" as="alternateBounds" />
          </mxGeometry>
        </mxCell>
        <mxCell id="zRnEoflxh51FS6Fjrhx--185" value="" style="shape=partialRectangle;html=1;whiteSpace=wrap;connectable=0;strokeColor=inherit;overflow=hidden;fillColor=none;top=0;left=0;bottom=0;right=0;pointerEvents=1;fontSize=16;" parent="zRnEoflxh51FS6Fjrhx--182" vertex="1">
          <mxGeometry x="341" width="134" height="49" as="geometry">
            <mxRectangle width="134" height="49" as="alternateBounds" />
          </mxGeometry>
        </mxCell>
        <mxCell id="zRnEoflxh51FS6Fjrhx--186" style="shape=partialRectangle;html=1;whiteSpace=wrap;connectable=0;strokeColor=inherit;overflow=hidden;fillColor=none;top=0;left=0;bottom=0;right=0;pointerEvents=1;fontSize=16;" parent="zRnEoflxh51FS6Fjrhx--182" vertex="1">
          <mxGeometry x="475" width="138" height="49" as="geometry">
            <mxRectangle width="138" height="49" as="alternateBounds" />
          </mxGeometry>
        </mxCell>
        <mxCell id="zRnEoflxh51FS6Fjrhx--187" style="shape=partialRectangle;html=1;whiteSpace=wrap;connectable=0;strokeColor=inherit;overflow=hidden;fillColor=none;top=0;left=0;bottom=0;right=0;pointerEvents=1;fontSize=16;" parent="zRnEoflxh51FS6Fjrhx--182" vertex="1">
          <mxGeometry x="613" width="160" height="49" as="geometry">
            <mxRectangle width="160" height="49" as="alternateBounds" />
          </mxGeometry>
        </mxCell>
        <mxCell id="zRnEoflxh51FS6Fjrhx--188" style="shape=partialRectangle;html=1;whiteSpace=wrap;connectable=0;strokeColor=inherit;overflow=hidden;fillColor=none;top=0;left=0;bottom=0;right=0;pointerEvents=1;fontSize=16;" parent="zRnEoflxh51FS6Fjrhx--182" vertex="1">
          <mxGeometry x="773" width="230" height="49" as="geometry">
            <mxRectangle width="230" height="49" as="alternateBounds" />
          </mxGeometry>
        </mxCell>
        <mxCell id="zRnEoflxh51FS6Fjrhx--195" style="edgeStyle=none;curved=1;rounded=0;orthogonalLoop=1;jettySize=auto;html=1;fontSize=12;startSize=8;endSize=8;exitX=0;exitY=0.5;exitDx=0;exitDy=0;entryX=0.149;entryY=0.103;entryDx=0;entryDy=0;entryPerimeter=0;" parent="PY6bWM1avwo25toCsDUN-4" source="zRnEoflxh51FS6Fjrhx--3" target="zRnEoflxh51FS6Fjrhx--172" edge="1">
          <mxGeometry relative="1" as="geometry">
            <mxPoint x="429.28586727828565" y="900.398532962943" as="targetPoint" />
            <Array as="points">
              <mxPoint x="456.00340653698447" />
            </Array>
          </mxGeometry>
        </mxCell>
        <mxCell id="zRnEoflxh51FS6Fjrhx--196" value="&lt;span style=&quot;font-size: 22px;&quot;&gt;Clave foránea&lt;/span&gt;" style="edgeLabel;html=1;align=center;verticalAlign=middle;resizable=0;points=[];fontSize=12;" parent="zRnEoflxh51FS6Fjrhx--195" vertex="1" connectable="0">
          <mxGeometry x="-0.1887" y="197" relative="1" as="geometry">
            <mxPoint as="offset" />
          </mxGeometry>
        </mxCell>
        <mxCell id="zRnEoflxh51FS6Fjrhx--197" value="Tabla 4 relaciona_grados_profesor_asignatura" style="shape=table;startSize=30;container=1;collapsible=0;childLayout=tableLayout;strokeColor=#000000;fontSize=16;fillColor=#00FF00;" parent="PY6bWM1avwo25toCsDUN-4" vertex="1">
          <mxGeometry y="1101.642246309712" width="685.5251211606006" height="125.35775369028816" as="geometry" />
        </mxCell>
        <mxCell id="zRnEoflxh51FS6Fjrhx--198" value="" style="shape=tableRow;horizontal=0;startSize=0;swimlaneHead=0;swimlaneBody=0;strokeColor=inherit;top=0;left=0;bottom=0;right=0;collapsible=0;dropTarget=0;fillColor=none;points=[[0,0.5],[1,0.5]];portConstraint=eastwest;fontSize=16;" parent="zRnEoflxh51FS6Fjrhx--197" vertex="1">
          <mxGeometry y="30" width="685.5251211606006" height="46" as="geometry" />
        </mxCell>
        <mxCell id="zRnEoflxh51FS6Fjrhx--199" value="id_grado (clave foranea)" style="shape=partialRectangle;html=1;whiteSpace=wrap;connectable=0;strokeColor=inherit;overflow=hidden;fillColor=none;top=0;left=0;bottom=0;right=0;pointerEvents=1;fontSize=16;" parent="zRnEoflxh51FS6Fjrhx--198" vertex="1">
          <mxGeometry width="196" height="46" as="geometry">
            <mxRectangle width="196" height="46" as="alternateBounds" />
          </mxGeometry>
        </mxCell>
        <mxCell id="zRnEoflxh51FS6Fjrhx--200" value="id_profesor (clave foranea)" style="shape=partialRectangle;html=1;whiteSpace=wrap;connectable=0;strokeColor=inherit;overflow=hidden;fillColor=none;top=0;left=0;bottom=0;right=0;pointerEvents=1;fontSize=16;" parent="zRnEoflxh51FS6Fjrhx--198" vertex="1">
          <mxGeometry x="196" width="232" height="46" as="geometry">
            <mxRectangle width="232" height="46" as="alternateBounds" />
          </mxGeometry>
        </mxCell>
        <mxCell id="zRnEoflxh51FS6Fjrhx--201" value="id_asignatura (clave foranea)" style="shape=partialRectangle;html=1;whiteSpace=wrap;connectable=0;strokeColor=inherit;overflow=hidden;fillColor=none;top=0;left=0;bottom=0;right=0;pointerEvents=1;fontSize=16;" parent="zRnEoflxh51FS6Fjrhx--198" vertex="1">
          <mxGeometry x="428" width="258" height="46" as="geometry">
            <mxRectangle width="258" height="46" as="alternateBounds" />
          </mxGeometry>
        </mxCell>
        <mxCell id="zRnEoflxh51FS6Fjrhx--202" value="" style="shape=tableRow;horizontal=0;startSize=0;swimlaneHead=0;swimlaneBody=0;strokeColor=inherit;top=0;left=0;bottom=0;right=0;collapsible=0;dropTarget=0;fillColor=none;points=[[0,0.5],[1,0.5]];portConstraint=eastwest;fontSize=16;" parent="zRnEoflxh51FS6Fjrhx--197" vertex="1">
          <mxGeometry y="76" width="685.5251211606006" height="49" as="geometry" />
        </mxCell>
        <mxCell id="zRnEoflxh51FS6Fjrhx--203" style="shape=partialRectangle;html=1;whiteSpace=wrap;connectable=0;strokeColor=inherit;overflow=hidden;fillColor=none;top=0;left=0;bottom=0;right=0;pointerEvents=1;fontSize=16;" parent="zRnEoflxh51FS6Fjrhx--202" vertex="1">
          <mxGeometry width="196" height="49" as="geometry">
            <mxRectangle width="196" height="49" as="alternateBounds" />
          </mxGeometry>
        </mxCell>
        <mxCell id="zRnEoflxh51FS6Fjrhx--204" value="" style="shape=partialRectangle;html=1;whiteSpace=wrap;connectable=0;strokeColor=inherit;overflow=hidden;fillColor=none;top=0;left=0;bottom=0;right=0;pointerEvents=1;fontSize=16;" parent="zRnEoflxh51FS6Fjrhx--202" vertex="1">
          <mxGeometry x="196" width="232" height="49" as="geometry">
            <mxRectangle width="232" height="49" as="alternateBounds" />
          </mxGeometry>
        </mxCell>
        <mxCell id="zRnEoflxh51FS6Fjrhx--205" value="" style="shape=partialRectangle;html=1;whiteSpace=wrap;connectable=0;strokeColor=inherit;overflow=hidden;fillColor=none;top=0;left=0;bottom=0;right=0;pointerEvents=1;fontSize=16;" parent="zRnEoflxh51FS6Fjrhx--202" vertex="1">
          <mxGeometry x="428" width="258" height="49" as="geometry">
            <mxRectangle width="258" height="49" as="alternateBounds" />
          </mxGeometry>
        </mxCell>
        <mxCell id="zRnEoflxh51FS6Fjrhx--226" style="edgeStyle=none;curved=1;rounded=0;orthogonalLoop=1;jettySize=auto;html=1;fontSize=12;startSize=8;endSize=8;exitX=0;exitY=0.5;exitDx=0;exitDy=0;entryX=0.705;entryY=0.057;entryDx=0;entryDy=0;entryPerimeter=0;" parent="PY6bWM1avwo25toCsDUN-4" source="zRnEoflxh51FS6Fjrhx--69" target="zRnEoflxh51FS6Fjrhx--197" edge="1">
          <mxGeometry relative="1" as="geometry">
            <mxPoint x="414.5485513972584" y="1088.5792947724424" as="targetPoint" />
            <Array as="points">
              <mxPoint x="420.25967158277905" y="701.7539081649328" />
            </Array>
          </mxGeometry>
        </mxCell>
        <mxCell id="zRnEoflxh51FS6Fjrhx--273" value="&lt;span style=&quot;font-size: 22px;&quot;&gt;Clave foránea&lt;/span&gt;" style="edgeLabel;html=1;align=center;verticalAlign=middle;resizable=0;points=[];fontSize=12;" parent="zRnEoflxh51FS6Fjrhx--226" vertex="1" connectable="0">
          <mxGeometry x="-0.2837" y="62" relative="1" as="geometry">
            <mxPoint x="1" as="offset" />
          </mxGeometry>
        </mxCell>
        <mxCell id="zRnEoflxh51FS6Fjrhx--227" style="edgeStyle=none;curved=1;rounded=0;orthogonalLoop=1;jettySize=auto;html=1;fontSize=12;startSize=8;endSize=8;exitX=0;exitY=0.5;exitDx=0;exitDy=0;" parent="PY6bWM1avwo25toCsDUN-4" source="zRnEoflxh51FS6Fjrhx--173" edge="1">
          <mxGeometry relative="1" as="geometry">
            <mxPoint x="278.66327801763435" y="1100.7308775978092" as="targetPoint" />
            <Array as="points">
              <mxPoint x="316.27789717054503" y="966.8609401383519" />
            </Array>
          </mxGeometry>
        </mxCell>
        <mxCell id="zRnEoflxh51FS6Fjrhx--274" value="&lt;span style=&quot;font-size: 22px;&quot;&gt;Clave foránea&lt;/span&gt;" style="edgeLabel;html=1;align=center;verticalAlign=middle;resizable=0;points=[];fontSize=12;" parent="zRnEoflxh51FS6Fjrhx--227" vertex="1" connectable="0">
          <mxGeometry x="-0.2882" y="16" relative="1" as="geometry">
            <mxPoint as="offset" />
          </mxGeometry>
        </mxCell>
        <mxCell id="zRnEoflxh51FS6Fjrhx--229" style="edgeStyle=none;curved=1;rounded=0;orthogonalLoop=1;jettySize=auto;html=1;fontSize=12;startSize=8;endSize=8;" parent="PY6bWM1avwo25toCsDUN-4" edge="1">
          <mxGeometry relative="1" as="geometry">
            <mxPoint x="62.03458132548024" y="1096.6803499893538" as="targetPoint" />
            <mxPoint x="1040.9008876058006" y="284.043248542949" as="sourcePoint" />
            <Array as="points">
              <mxPoint x="99.64920047839091" y="217.20954300343158" />
            </Array>
          </mxGeometry>
        </mxCell>
        <mxCell id="zRnEoflxh51FS6Fjrhx--272" value="&lt;span style=&quot;font-size: 22px;&quot;&gt;Clave foránea&lt;/span&gt;" style="edgeLabel;html=1;align=center;verticalAlign=middle;resizable=0;points=[];fontSize=12;" parent="zRnEoflxh51FS6Fjrhx--229" vertex="1" connectable="0">
          <mxGeometry x="-0.3581" y="116" relative="1" as="geometry">
            <mxPoint x="1" y="1" as="offset" />
          </mxGeometry>
        </mxCell>
        <mxCell id="zRnEoflxh51FS6Fjrhx--231" value="Tabla 8 usuarios" style="shape=table;startSize=30;container=1;collapsible=0;childLayout=tableLayout;strokeColor=#000000;fontSize=16;fillColor=#00FF00;" parent="PY6bWM1avwo25toCsDUN-4" vertex="1">
          <mxGeometry x="2245.3564412141777" y="683.9315866877282" width="1277.6435587858218" height="125.35775369028816" as="geometry" />
        </mxCell>
        <mxCell id="zRnEoflxh51FS6Fjrhx--232" value="" style="shape=tableRow;horizontal=0;startSize=0;swimlaneHead=0;swimlaneBody=0;strokeColor=inherit;top=0;left=0;bottom=0;right=0;collapsible=0;dropTarget=0;fillColor=none;points=[[0,0.5],[1,0.5]];portConstraint=eastwest;fontSize=16;" parent="zRnEoflxh51FS6Fjrhx--231" vertex="1">
          <mxGeometry y="30" width="1277.6435587858218" height="46" as="geometry" />
        </mxCell>
        <mxCell id="zRnEoflxh51FS6Fjrhx--233" value="id_usuario" style="shape=partialRectangle;html=1;whiteSpace=wrap;connectable=0;strokeColor=inherit;overflow=hidden;fillColor=none;top=0;left=0;bottom=0;right=0;pointerEvents=1;fontSize=16;" parent="zRnEoflxh51FS6Fjrhx--232" vertex="1">
          <mxGeometry width="121" height="46" as="geometry">
            <mxRectangle width="121" height="46" as="alternateBounds" />
          </mxGeometry>
        </mxCell>
        <mxCell id="zRnEoflxh51FS6Fjrhx--234" value="id_rol (clave foranea)" style="shape=partialRectangle;html=1;whiteSpace=wrap;connectable=0;strokeColor=inherit;overflow=hidden;fillColor=none;top=0;left=0;bottom=0;right=0;pointerEvents=1;fontSize=16;" parent="zRnEoflxh51FS6Fjrhx--232" vertex="1">
          <mxGeometry x="121" width="220" height="46" as="geometry">
            <mxRectangle width="220" height="46" as="alternateBounds" />
          </mxGeometry>
        </mxCell>
        <mxCell id="zRnEoflxh51FS6Fjrhx--235" value="nombres_y_apellidos" style="shape=partialRectangle;html=1;whiteSpace=wrap;connectable=0;strokeColor=inherit;overflow=hidden;fillColor=none;top=0;left=0;bottom=0;right=0;pointerEvents=1;fontSize=16;" parent="zRnEoflxh51FS6Fjrhx--232" vertex="1">
          <mxGeometry x="341" width="187" height="46" as="geometry">
            <mxRectangle width="187" height="46" as="alternateBounds" />
          </mxGeometry>
        </mxCell>
        <mxCell id="zRnEoflxh51FS6Fjrhx--240" value="tipo_documento" style="shape=partialRectangle;html=1;whiteSpace=wrap;connectable=0;strokeColor=inherit;overflow=hidden;fillColor=none;top=0;left=0;bottom=0;right=0;pointerEvents=1;fontSize=16;" parent="zRnEoflxh51FS6Fjrhx--232" vertex="1">
          <mxGeometry x="528" width="188" height="46" as="geometry">
            <mxRectangle width="188" height="46" as="alternateBounds" />
          </mxGeometry>
        </mxCell>
        <mxCell id="zRnEoflxh51FS6Fjrhx--242" value="numero_documento" style="shape=partialRectangle;html=1;whiteSpace=wrap;connectable=0;strokeColor=inherit;overflow=hidden;fillColor=none;top=0;left=0;bottom=0;right=0;pointerEvents=1;fontSize=16;" parent="zRnEoflxh51FS6Fjrhx--232" vertex="1">
          <mxGeometry x="716" width="187" height="46" as="geometry">
            <mxRectangle width="187" height="46" as="alternateBounds" />
          </mxGeometry>
        </mxCell>
        <mxCell id="zRnEoflxh51FS6Fjrhx--244" value="correo" style="shape=partialRectangle;html=1;whiteSpace=wrap;connectable=0;strokeColor=inherit;overflow=hidden;fillColor=none;top=0;left=0;bottom=0;right=0;pointerEvents=1;fontSize=16;" parent="zRnEoflxh51FS6Fjrhx--232" vertex="1">
          <mxGeometry x="903" width="187" height="46" as="geometry">
            <mxRectangle width="187" height="46" as="alternateBounds" />
          </mxGeometry>
        </mxCell>
        <mxCell id="zRnEoflxh51FS6Fjrhx--246" value="contrasena" style="shape=partialRectangle;html=1;whiteSpace=wrap;connectable=0;strokeColor=inherit;overflow=hidden;fillColor=none;top=0;left=0;bottom=0;right=0;pointerEvents=1;fontSize=16;" parent="zRnEoflxh51FS6Fjrhx--232" vertex="1">
          <mxGeometry x="1090" width="188" height="46" as="geometry">
            <mxRectangle width="188" height="46" as="alternateBounds" />
          </mxGeometry>
        </mxCell>
        <mxCell id="zRnEoflxh51FS6Fjrhx--236" value="" style="shape=tableRow;horizontal=0;startSize=0;swimlaneHead=0;swimlaneBody=0;strokeColor=inherit;top=0;left=0;bottom=0;right=0;collapsible=0;dropTarget=0;fillColor=none;points=[[0,0.5],[1,0.5]];portConstraint=eastwest;fontSize=16;" parent="zRnEoflxh51FS6Fjrhx--231" vertex="1">
          <mxGeometry y="76" width="1277.6435587858218" height="49" as="geometry" />
        </mxCell>
        <mxCell id="zRnEoflxh51FS6Fjrhx--237" style="shape=partialRectangle;html=1;whiteSpace=wrap;connectable=0;strokeColor=inherit;overflow=hidden;fillColor=none;top=0;left=0;bottom=0;right=0;pointerEvents=1;fontSize=16;" parent="zRnEoflxh51FS6Fjrhx--236" vertex="1">
          <mxGeometry width="121" height="49" as="geometry">
            <mxRectangle width="121" height="49" as="alternateBounds" />
          </mxGeometry>
        </mxCell>
        <mxCell id="zRnEoflxh51FS6Fjrhx--238" value="" style="shape=partialRectangle;html=1;whiteSpace=wrap;connectable=0;strokeColor=inherit;overflow=hidden;fillColor=none;top=0;left=0;bottom=0;right=0;pointerEvents=1;fontSize=16;" parent="zRnEoflxh51FS6Fjrhx--236" vertex="1">
          <mxGeometry x="121" width="220" height="49" as="geometry">
            <mxRectangle width="220" height="49" as="alternateBounds" />
          </mxGeometry>
        </mxCell>
        <mxCell id="zRnEoflxh51FS6Fjrhx--239" value="" style="shape=partialRectangle;html=1;whiteSpace=wrap;connectable=0;strokeColor=inherit;overflow=hidden;fillColor=none;top=0;left=0;bottom=0;right=0;pointerEvents=1;fontSize=16;" parent="zRnEoflxh51FS6Fjrhx--236" vertex="1">
          <mxGeometry x="341" width="187" height="49" as="geometry">
            <mxRectangle width="187" height="49" as="alternateBounds" />
          </mxGeometry>
        </mxCell>
        <mxCell id="zRnEoflxh51FS6Fjrhx--241" style="shape=partialRectangle;html=1;whiteSpace=wrap;connectable=0;strokeColor=inherit;overflow=hidden;fillColor=none;top=0;left=0;bottom=0;right=0;pointerEvents=1;fontSize=16;" parent="zRnEoflxh51FS6Fjrhx--236" vertex="1">
          <mxGeometry x="528" width="188" height="49" as="geometry">
            <mxRectangle width="188" height="49" as="alternateBounds" />
          </mxGeometry>
        </mxCell>
        <mxCell id="zRnEoflxh51FS6Fjrhx--243" style="shape=partialRectangle;html=1;whiteSpace=wrap;connectable=0;strokeColor=inherit;overflow=hidden;fillColor=none;top=0;left=0;bottom=0;right=0;pointerEvents=1;fontSize=16;" parent="zRnEoflxh51FS6Fjrhx--236" vertex="1">
          <mxGeometry x="716" width="187" height="49" as="geometry">
            <mxRectangle width="187" height="49" as="alternateBounds" />
          </mxGeometry>
        </mxCell>
        <mxCell id="zRnEoflxh51FS6Fjrhx--245" style="shape=partialRectangle;html=1;whiteSpace=wrap;connectable=0;strokeColor=inherit;overflow=hidden;fillColor=none;top=0;left=0;bottom=0;right=0;pointerEvents=1;fontSize=16;" parent="zRnEoflxh51FS6Fjrhx--236" vertex="1">
          <mxGeometry x="903" width="187" height="49" as="geometry">
            <mxRectangle width="187" height="49" as="alternateBounds" />
          </mxGeometry>
        </mxCell>
        <mxCell id="zRnEoflxh51FS6Fjrhx--247" style="shape=partialRectangle;html=1;whiteSpace=wrap;connectable=0;strokeColor=inherit;overflow=hidden;fillColor=none;top=0;left=0;bottom=0;right=0;pointerEvents=1;fontSize=16;" parent="zRnEoflxh51FS6Fjrhx--236" vertex="1">
          <mxGeometry x="1090" width="188" height="49" as="geometry">
            <mxRectangle width="188" height="49" as="alternateBounds" />
          </mxGeometry>
        </mxCell>
        <mxCell id="zRnEoflxh51FS6Fjrhx--248" value="Tabla 7 roles" style="shape=table;startSize=30;container=1;collapsible=0;childLayout=tableLayout;strokeColor=#000000;fontSize=16;fillColor=#00FF00;" parent="PY6bWM1avwo25toCsDUN-4" vertex="1">
          <mxGeometry x="2567.0500558020267" y="417.71065962198384" width="902.8759135083951" height="125.35775369028816" as="geometry" />
        </mxCell>
        <mxCell id="zRnEoflxh51FS6Fjrhx--249" value="" style="shape=tableRow;horizontal=0;startSize=0;swimlaneHead=0;swimlaneBody=0;strokeColor=inherit;top=0;left=0;bottom=0;right=0;collapsible=0;dropTarget=0;fillColor=none;points=[[0,0.5],[1,0.5]];portConstraint=eastwest;fontSize=16;" parent="zRnEoflxh51FS6Fjrhx--248" vertex="1">
          <mxGeometry y="30" width="902.8759135083951" height="46" as="geometry" />
        </mxCell>
        <mxCell id="zRnEoflxh51FS6Fjrhx--250" value="id_rol" style="shape=partialRectangle;html=1;whiteSpace=wrap;connectable=0;strokeColor=inherit;overflow=hidden;fillColor=none;top=0;left=0;bottom=0;right=0;pointerEvents=1;fontSize=16;" parent="zRnEoflxh51FS6Fjrhx--249" vertex="1">
          <mxGeometry width="121" height="46" as="geometry">
            <mxRectangle width="121" height="46" as="alternateBounds" />
          </mxGeometry>
        </mxCell>
        <mxCell id="zRnEoflxh51FS6Fjrhx--251" value="nombre" style="shape=partialRectangle;html=1;whiteSpace=wrap;connectable=0;strokeColor=inherit;overflow=hidden;fillColor=none;top=0;left=0;bottom=0;right=0;pointerEvents=1;fontSize=16;" parent="zRnEoflxh51FS6Fjrhx--249" vertex="1">
          <mxGeometry x="121" width="220" height="46" as="geometry">
            <mxRectangle width="220" height="46" as="alternateBounds" />
          </mxGeometry>
        </mxCell>
        <mxCell id="zRnEoflxh51FS6Fjrhx--252" value="descripcion" style="shape=partialRectangle;html=1;whiteSpace=wrap;connectable=0;strokeColor=inherit;overflow=hidden;fillColor=none;top=0;left=0;bottom=0;right=0;pointerEvents=1;fontSize=16;" parent="zRnEoflxh51FS6Fjrhx--249" vertex="1">
          <mxGeometry x="341" width="187" height="46" as="geometry">
            <mxRectangle width="187" height="46" as="alternateBounds" />
          </mxGeometry>
        </mxCell>
        <mxCell id="zRnEoflxh51FS6Fjrhx--275" value="estado (tipo enfoque activo, inactivo)" style="shape=partialRectangle;html=1;whiteSpace=wrap;connectable=0;strokeColor=inherit;overflow=hidden;fillColor=none;top=0;left=0;bottom=0;right=0;pointerEvents=1;fontSize=16;" parent="zRnEoflxh51FS6Fjrhx--249" vertex="1">
          <mxGeometry x="528" width="188" height="46" as="geometry">
            <mxRectangle width="188" height="46" as="alternateBounds" />
          </mxGeometry>
        </mxCell>
        <mxCell id="zRnEoflxh51FS6Fjrhx--277" value="fecha_creacion" style="shape=partialRectangle;html=1;whiteSpace=wrap;connectable=0;strokeColor=inherit;overflow=hidden;fillColor=none;top=0;left=0;bottom=0;right=0;pointerEvents=1;fontSize=16;" parent="zRnEoflxh51FS6Fjrhx--249" vertex="1">
          <mxGeometry x="716" width="187" height="46" as="geometry">
            <mxRectangle width="187" height="46" as="alternateBounds" />
          </mxGeometry>
        </mxCell>
        <mxCell id="zRnEoflxh51FS6Fjrhx--257" value="" style="shape=tableRow;horizontal=0;startSize=0;swimlaneHead=0;swimlaneBody=0;strokeColor=inherit;top=0;left=0;bottom=0;right=0;collapsible=0;dropTarget=0;fillColor=none;points=[[0,0.5],[1,0.5]];portConstraint=eastwest;fontSize=16;" parent="zRnEoflxh51FS6Fjrhx--248" vertex="1">
          <mxGeometry y="76" width="902.8759135083951" height="49" as="geometry" />
        </mxCell>
        <mxCell id="zRnEoflxh51FS6Fjrhx--258" style="shape=partialRectangle;html=1;whiteSpace=wrap;connectable=0;strokeColor=inherit;overflow=hidden;fillColor=none;top=0;left=0;bottom=0;right=0;pointerEvents=1;fontSize=16;" parent="zRnEoflxh51FS6Fjrhx--257" vertex="1">
          <mxGeometry width="121" height="49" as="geometry">
            <mxRectangle width="121" height="49" as="alternateBounds" />
          </mxGeometry>
        </mxCell>
        <mxCell id="zRnEoflxh51FS6Fjrhx--259" value="" style="shape=partialRectangle;html=1;whiteSpace=wrap;connectable=0;strokeColor=inherit;overflow=hidden;fillColor=none;top=0;left=0;bottom=0;right=0;pointerEvents=1;fontSize=16;" parent="zRnEoflxh51FS6Fjrhx--257" vertex="1">
          <mxGeometry x="121" width="220" height="49" as="geometry">
            <mxRectangle width="220" height="49" as="alternateBounds" />
          </mxGeometry>
        </mxCell>
        <mxCell id="zRnEoflxh51FS6Fjrhx--260" value="" style="shape=partialRectangle;html=1;whiteSpace=wrap;connectable=0;strokeColor=inherit;overflow=hidden;fillColor=none;top=0;left=0;bottom=0;right=0;pointerEvents=1;fontSize=16;" parent="zRnEoflxh51FS6Fjrhx--257" vertex="1">
          <mxGeometry x="341" width="187" height="49" as="geometry">
            <mxRectangle width="187" height="49" as="alternateBounds" />
          </mxGeometry>
        </mxCell>
        <mxCell id="zRnEoflxh51FS6Fjrhx--276" style="shape=partialRectangle;html=1;whiteSpace=wrap;connectable=0;strokeColor=inherit;overflow=hidden;fillColor=none;top=0;left=0;bottom=0;right=0;pointerEvents=1;fontSize=16;" parent="zRnEoflxh51FS6Fjrhx--257" vertex="1">
          <mxGeometry x="528" width="188" height="49" as="geometry">
            <mxRectangle width="188" height="49" as="alternateBounds" />
          </mxGeometry>
        </mxCell>
        <mxCell id="zRnEoflxh51FS6Fjrhx--278" style="shape=partialRectangle;html=1;whiteSpace=wrap;connectable=0;strokeColor=inherit;overflow=hidden;fillColor=none;top=0;left=0;bottom=0;right=0;pointerEvents=1;fontSize=16;" parent="zRnEoflxh51FS6Fjrhx--257" vertex="1">
          <mxGeometry x="716" width="187" height="49" as="geometry">
            <mxRectangle width="187" height="49" as="alternateBounds" />
          </mxGeometry>
        </mxCell>
        <mxCell id="zRnEoflxh51FS6Fjrhx--267" style="edgeStyle=none;curved=1;rounded=0;orthogonalLoop=1;jettySize=auto;html=1;entryX=0.158;entryY=0.013;entryDx=0;entryDy=0;entryPerimeter=0;fontSize=12;startSize=8;endSize=8;exitX=0;exitY=0.5;exitDx=0;exitDy=0;" parent="PY6bWM1avwo25toCsDUN-4" source="zRnEoflxh51FS6Fjrhx--249" target="zRnEoflxh51FS6Fjrhx--231" edge="1">
          <mxGeometry relative="1" as="geometry">
            <Array as="points">
              <mxPoint x="2374.2505157460096" y="582.5671332861267" />
            </Array>
          </mxGeometry>
        </mxCell>
        <mxCell id="zRnEoflxh51FS6Fjrhx--269" value="&lt;span style=&quot;font-size: 22px;&quot;&gt;Clave foránea&lt;/span&gt;" style="edgeLabel;html=1;align=center;verticalAlign=middle;resizable=0;points=[];fontSize=12;" parent="zRnEoflxh51FS6Fjrhx--267" vertex="1" connectable="0">
          <mxGeometry x="-0.1925" y="24" relative="1" as="geometry">
            <mxPoint as="offset" />
          </mxGeometry>
        </mxCell>
      </root>
    </mxGraphModel>
  </diagram>
</mxfile>
